<svg version="1.1" id="Layer_1" xmlns="http://www.w3.org/2000/svg" x="0" y="0" viewBox="0 0 300 300" style="enable-background:new 0 0 300 300" xml:space="preserve">
    <style>
        .st2{fill:#fff}
    </style>
    <path d="M261.71 118.03c-1.04-2.76-3.66-4.46-6.87-4.46h-15.09c-2.5 0-5.07 1.02-7.14 2.76-1.31-1.74-3.44-2.76-5.94-2.76h-15.09c-.14 0-.28.05-.42.05-.18-.01-.33-.05-.52-.05h-28.97c-5.04 0-10.02 4.09-11.12 9.13h-1.92c1.1-5.04-2.1-9.13-7.14-9.13h-13.61c-4.1 0-8.11 2.72-10.08 6.43-1.07-1.05-2.22-2.04-3.51-2.9-4.42-2.97-9.69-4.47-15.64-4.47-5.96 0-11.88 1.5-17.59 4.47-3.41 1.77-6.52 3.99-9.36 6.53-1.47-2.57-3.29-4.87-5.82-6.55-3.49-2.33-7.66-3.51-12.37-3.51H56.35c-5.04 0-10.02 4.09-11.12 9.13l-10.01 45.94c-1.1 5.04 2.1 9.13 7.14 9.13h13.61c1.35 0 2.7-.29 3.97-.82 1.06.54 2.29.82 3.61.82h18.31c2.66 0 5.39-1.16 7.52-3.1 4.27 2.65 9.25 4.04 14.87 4.04 5.96 0 11.88-1.5 17.59-4.47 1.67-.86 3.24-1.85 4.78-2.9.35 3.72 3.18 6.43 7.28 6.43h28.97c.84 0 1.67-.15 2.49-.36.73.21 1.49.36 2.33.36h28.97c3.38 0 6.71-1.86 8.88-4.59.98 2.73 3.5 4.59 6.88 4.59h13.61c5.04 0 10.02-4.09 11.12-9.13l3.54-16.26 19.24-25.32c2.15-2.84 2.82-6.27 1.78-9.03z"/>
    <path d="M264.52 126.69c-1.04-2.76-3.66-4.46-6.87-4.46h-15.09c-2.5 0-5.07 1.02-7.14 2.76-1.31-1.74-3.44-2.76-5.94-2.76h-15.09c-.14 0-.28.05-.42.05-.18-.01-.33-.05-.52-.05h-28.97c-5.04 0-10.02 4.09-11.12 9.13h-1.92c1.1-5.04-2.1-9.13-7.14-9.13h-13.61c-4.1 0-8.11 2.72-10.08 6.43-1.07-1.05-2.22-2.04-3.51-2.9-4.42-2.97-9.69-4.47-15.64-4.47-5.96 0-11.88 1.5-17.59 4.47-3.41 1.77-6.52 3.99-9.36 6.53-1.47-2.57-3.29-4.87-5.82-6.55-3.49-2.33-7.66-3.51-12.37-3.51H59.16c-5.04 0-10.02 4.09-11.12 9.13L38.03 177.3c-1.1 5.04 2.1 9.13 7.14 9.13h13.61c1.35 0 2.7-.29 3.97-.82 1.06.54 2.29.82 3.61.82h18.31c2.66 0 5.39-1.16 7.52-3.1 4.27 2.65 9.25 4.04 14.87 4.04 5.96 0 11.88-1.5 17.59-4.47 1.67-.86 3.24-1.85 4.78-2.9.35 3.72 3.18 6.43 7.28 6.43h28.97c.84 0 1.67-.15 2.49-.36.73.21 1.49.36 2.33.36h28.97c3.38 0 6.71-1.86 8.88-4.59.98 2.73 3.5 4.59 6.88 4.59h13.61c5.04 0 10.02-4.09 11.12-9.13l3.54-16.26 19.24-25.32c2.15-2.84 2.82-6.26 1.78-9.03z" style="opacity:.15"/>
    <path class="st2" d="M78.06 150.09c2.59-1.48 4.84-3.41 6.71-5.73 1.95-2.43 3.25-5.08 3.86-7.88.67-3.06.53-5.94-.41-8.54-.95-2.6-2.58-4.68-4.85-6.19-2.27-1.51-4.97-2.28-8.04-2.28H58.5c-.17 0-.33.13-.36.3l-9.82 45.06c-.04.17.07.3.23.3H61.9c.17 0 .33-.13.36-.3l1.68-7.69 5.19 7.89c.04.07.11.1.2.1H87.3c.12 0 .24-.07.31-.17s.08-.23.02-.32l-9.57-14.55zm-5.05-9.42c-1.12.92-2.29 1.36-3.57 1.36h-2.2l2.02-9.27h2.2c1.29 0 2.26.45 2.98 1.36.72.92.93 1.99.65 3.27-.29 1.29-.97 2.36-2.08 3.28zM155.03 151.18l6.84-31.41c.04-.17-.07-.3-.23-.3h-13.35c-.17 0-.33.13-.36.3l-9.82 45.06c-.04.17.07.3.23.3h28.42c.17 0 .33-.13.36-.3l2.91-13.35c.04-.17-.07-.3-.23-.3h-14.77zM181.44 119.47c-.17 0-.33.13-.36.3l-9.82 45.06c-.04.17.07.3.23.3h28.42c.17 0 .33-.13.36-.3l2.91-13.35c.04-.17-.07-.3-.23-.3h-14.77l1.13-5.2h14.77c.17 0 .33-.13.36-.3l1.53-7.04c.04-.17-.07-.3-.23-.3h-14.77l1.06-4.87h14.77c.17 0 .33-.13.36-.3l2.92-13.42c.04-.17-.07-.3-.23-.3h-28.41zM255.43 119.62a.229.229 0 0 0-.22-.15h-14.8a.38.38 0 0 0-.3.16l-8.82 12.11-3.48-12.11c-.03-.1-.12-.16-.23-.16h-14.8c-.1 0-.22.06-.29.15s-.1.2-.07.29l8.69 26.71-3.97 18.21c-.04.17.07.3.23.3h13.35c.17 0 .33-.13.36-.3l3.95-18.15 20.34-26.77c.07-.09.09-.2.06-.29zM119.61 118.55c-13.12 0-26.07 10.63-28.92 23.75-2.86 13.12 5.46 23.75 18.57 23.75s26.07-10.63 28.92-23.75c2.86-13.12-5.46-23.75-18.57-23.75zM102 153.68c-2.63 1.35-5.44.55-6.28-1.79-.84-2.33.61-5.32 3.24-6.66 2.63-1.35 5.44-.55 6.28 1.79.84 2.33-.61 5.31-3.24 6.66zm5.29-16.1c-1.86 2.33-5.01 3.13-7.05 1.79-2.04-1.35-2.19-4.33-.33-6.66 1.86-2.33 5.01-3.13 7.05-1.79 2.04 1.35 2.19 4.33.33 6.66zm2.96 23.91c-2.69 0-4.4-2.18-3.82-4.88.59-2.69 3.25-4.88 5.94-4.88s4.4 2.18 3.82 4.88c-.58 2.69-3.24 4.88-5.94 4.88zm3.12-14.31c-2.69 0-4.4-2.18-3.82-4.88.59-2.69 3.25-4.88 5.94-4.88 2.69 0 4.4 2.18 3.82 4.88-.58 2.69-3.24 4.88-5.94 4.88zm3.12-14.31c-2.69 0-4.4-2.18-3.82-4.88.59-2.69 3.25-4.88 5.94-4.88s4.4 2.18 3.82 4.88c-.59 2.69-3.25 4.88-5.94 4.88zm12.47 19.02c-1.86 2.33-5.01 3.13-7.05 1.79-2.04-1.35-2.19-4.33-.33-6.66 1.86-2.33 5.01-3.13 7.05-1.79 2.04 1.34 2.19 4.33.33 6.66zm.94-12.52c-2.63 1.35-5.44.55-6.28-1.79-.84-2.33.61-5.32 3.24-6.66 2.63-1.35 5.44-.55 6.28 1.79.84 2.33-.61 5.31-3.24 6.66z"/>
    <path d="M46.16 221.81c1.43-.11 4.9-.85 5.18-.96.78-.3 1.26-.8 1.41-1.48.13-.68-.27-1.35-1.41-1.27l-.43.07-2.8.52c-.04 0 0-.31.1-.83.38-2 1.62-7.13 2.25-10.41.16-.85.29-1.58.35-2.1-.19-.52-.69-.74-1.25-.69-.58.04-1.21.37-1.63.95-.32.47-.11.45-1.43 5.68-.77 3.02-1.28 5.15-1.57 6.67-.63 3.27-.24 3.62.71 3.84.08.02.27.02.52.01zM57.79 220.53c1.88-.11 4.95-1.5 5.28-3.04.21-.99-.39-1.29-1.28-1.29-1.19.07-1.87 1.29-3.18 1.37-.92.05-1.16-.45-1.22-1.39-.1-1.41.13-2.19.2-2.78.39-.13 2.88-.23 3.28-1.91.17-.78-.31-1.36-1.29-1.3-.4.02-.99.21-1.13.22h-.02l.01-.03c.02-.09.2-.56.99-3.72.02 0 .97-.02 2.07-.08.96-.05 2-.13 2.57-.28.94-.23 1.5-.88 1.63-1.5.12-.56-.13-1.09-.77-1.26a1.46 1.46 0 0 0-.49-.02c-2.76.21-1.43.13-4.18.29-2.44.14-3.54.32-3.9 2.01-.1.45-.12 1.02-.26 1.63-.36 1.66-1.16 3.61-1.63 5.81-.67 3.14-.68 6.61 2.58 7.26.21.01.45.03.74.01zM68.64 219.42c.75-.04 1.69-.6 1.92-1.61.04-.19.05-.4.04-.62-.05-1.46.56-4.54 1.1-6.97l.74-3.24c.29-.03.75-.12 1.38-.15l1.28-.03c.36-.02.49-.06.7-.16.61-.27 1.05-.79 1.17-1.32.14-.65-.19-1.28-1.24-1.49-.15-.03-.39-.03-.72-.02-1.38.07-4.01.46-4.24.54-.51.16-2.5.49-2.9.59-.85.23-1.43.86-1.57 1.49-.16.71.25 1.42 1.33 1.37.48-.02.63-.08 1.37-.19h.04c.09.1-1.67 6.96-1.75 9.79-.05 1.42.37 2.07 1.35 2.02zM78.86 208.58c1.57-.09 3.52-2.69 3.96-4.68.33-1.52-.37-2.51-1.61-2.44-1.4.16-2.6 1.24-2.86 2.43-.1.47-.03.93.3 1.31.12.13.21.26.2.3-.02.09-.25.36-.56.65-.36.35-.59.72-.67 1.07-.17.78.4 1.4 1.24 1.36zM87.69 218.68c1.89-.14 4.42-1.61 4.85-3.82.21-1.06-.07-1.99-.86-2.8-.6-.64-1.38-1.1-3.38-1.97-1.8-.78-2.09-.95-1.98-1.56.44-1.78 2.18-3.35 3.16-3.42.08-.01.13.01.21.02.21.07.27.74.11 1.67-.23 1.35.43 1.89 1.22 1.83.73-.05 1.61-.65 1.92-1.56l.15-.56c.13-.66.18-1.51.08-2.08-.22-1.51-1.39-2.39-3.17-2.26-3.01.22-6.36 3.65-6.92 6.5-.17.87-.07 1.7.37 2.36 1.11 1.6 5.22 2.25 5.77 3.63.05.12.05.24.03.34-.07.37-.47.65-1.03.69-.46.03-1.03-.1-1.62-.47-.35-.23-.43-.31-.37-.61l.1-.4c.08-.42.02-.69-.25-.96-.32-.3-.5-.36-1-.32-1.18.08-1.99 1.02-2.19 2.04-.11.57-.04 1.17.24 1.66.61 1.06 2.44 2.2 4.56 2.05zM111.28 217.24c.81-.05 1.68-.67 1.85-1.51.04-.21.03-.43-.02-.65-.26-.95-.19-4.85.01-7.36.33-3.89-.2-5.99-1.88-5.88-.37.02-.77.15-1.18.4-1.32.79-3.69 6.06-3.88 6.07-.15-.21-.32-3.3-.94-4.91-.43-1.14-.99-1.62-1.84-1.57-.75.06-1.3.32-1.8 1.01-.8 1.12-4.24 11.49-4.55 12.97-.24 1.15.42 1.64 1.21 1.59.58-.04 1.21-.35 1.61-.91.24-.32 2.67-8.38 2.82-8.39.13.01.26 3.97 1.89 4.63.21.09.53.12.83.1.31-.02.63-.09.86-.19 1.97-.91 3.25-4.78 3.61-5.06 0 0-.43 7.32.02 8.71.23.71.78.98 1.38.95zM120.51 210.31h-.06c.02-.07 2.11-3.63 2.19-3.63.05.05.05 2 .15 3.29-.03.1-1.9.32-2.28.34zm-5.39 6.88c.54-.02 1.13-.31 1.61-.92.61-.77 1.66-2.68 1.77-2.72 2.3-.58 3.96-.5 4.53-.63.23-.01.28 2.16 1.15 2.8.31.23.67.32 1.03.3.88-.04 1.76-.71 1.94-1.48.08-.35.01-.71-.27-1.04-.27-.3-.49-1.31-.69-2.99-.49-4.43-.05-8.75-.56-9.71-.26-.46-.73-.69-1.29-.67-.61.03-1.32.39-1.87 1.12-.16.21-.89 1.45-1.68 2.85-4.25 7.47-6.7 10.94-6.89 11.78-.17.85.48 1.34 1.22 1.31zM129.83 216.05c.8-.02 1.66-.65 1.86-1.47.05-.21.06-.45 0-.69-.09-.4.05-1.2.2-1.77.09-.37.18-.63.21-.63.06 0 .64.42.9.65.79.71 1.42 1.76 2.39 1.74.34-.01.72-.14 1.16-.47.39-.27.52-.48.65-1.01.15-.61.13-.73-.54-1.46-1.62-1.81-2.33-1.98-2.82-2.3 1.35-1.16 5.57-4.49 6.06-6.42.2-.82-.35-1.34-1.17-1.32-.34.01-.71.12-1.07.34-.36.22-.59.45-1.08 1.12-1.03 1.4-2.63 2.72-2.86 2.94 1.07-4.6 1.13-4.59.97-5.1-.18-.5-.65-.74-1.18-.73a2.1 2.1 0 0 0-.99.3c-.64.38-1.02 1.57-1.42 3.19l-.6 2.49c-.23.91-.49 1.89-.82 2.9-.1.33-.28.96-.46 1.69-.4 1.61-.85 3.73-.84 4.44.03 1.02.64 1.59 1.45 1.57zM142.33 216.16c1.86-.03 4.97-1.3 5.38-2.84.26-1-.31-1.32-1.19-1.36-1.18.02-1.92 1.23-3.21 1.24-.91.01-1.11-.51-1.13-1.46-.02-1.43.25-2.21.35-2.8.39-.11 2.85-.11 3.34-1.78.21-.79-.24-1.39-1.21-1.37-.4.01-.99.17-1.13.17h-.02l.01-.03c.02-.09.22-.56 1.18-3.72.02 0 .96.02 2.04.01.95-.01 1.98-.04 2.55-.17.94-.19 1.53-.82 1.69-1.45.15-.56-.06-1.11-.69-1.31-.14-.03-.23-.05-.48-.05-2.73.09-1.42.07-4.14.11-2.42.03-3.51.17-3.96 1.86-.12.45-.18 1.03-.34 1.64-.44 1.66-1.34 3.6-1.92 5.8-.84 3.14-1.03 6.66 2.14 7.45.22.03.46.06.74.06zM144.43 198.53a.32.32 0 0 1-.25-.29c-.01-.17.12-.32.29-.33 1.34-.08 2.71-.04 4.03-.01l.65.02c.17 0 .31.15.31.32s-.15.31-.32.31l-.65-.02c-1.31-.03-2.67-.07-3.98.01-.03 0-.05-.01-.08-.01zM142.92 198.72a.322.322 0 0 1-.24-.26c-.03-.17.09-.33.26-.36l.2-.03c.17-.02.33.1.35.27.02.17-.1.33-.27.35h-.01c-.06.01-.12.01-.18.02-.03.02-.07.02-.11.01zM44.1 216.15a.309.309 0 0 1-.24-.37c.35-1.71.77-3.39 1.29-5.4a.3.3 0 0 1 .38-.22.3.3 0 0 1 .22.38c-.52 2-.94 3.67-1.28 5.37-.03.17-.2.28-.37.24zM45.56 208.51l.31.06-.3-.08c.03-.16.07-.32.1-.49.04-.17.2-.27.37-.24.17.04.28.2.24.37-.03.16-.07.32-.1.48l-.31-.05-.31-.05zM71.11 203.65c-.12-.03-.22-.12-.24-.24-.03-.17.08-.33.25-.37l.32-.06c.7-.14 1.43-.29 2.16-.38.17-.02.33.1.35.27.02.17-.1.33-.27.35-.71.09-1.39.23-2.12.37l-.32.06c-.05.01-.09.01-.13 0zM93.17 216.35c-.03-.01-.05-.01-.07-.03a.314.314 0 0 1-.14-.42c.4-.81.77-1.97.21-2.87a.309.309 0 0 1 .1-.43c.15-.09.34-.05.43.1.57.91.5 2.11-.18 3.48-.07.13-.21.2-.35.17z"/>
    <path d="M92.6 211.57a.31.31 0 0 1-.13-.06l-.05-.04a.307.307 0 0 1-.05-.44c.11-.14.3-.16.44-.05l.05.04c.13.11.16.31.05.44-.08.1-.2.13-.31.11zM114.06 206.17a.321.321 0 0 1-.25-.31c.03-1.16.04-2.21-.17-3.25-.03-.17.08-.33.25-.37.17-.03.33.08.37.25.22 1.11.21 2.19.18 3.39 0 .17-.15.31-.32.3-.02-.01-.04-.01-.06-.01zM114.04 208.5a.321.321 0 0 1-.25-.31v-.63c0-.17.13-.32.31-.32.17 0 .32.13.32.31.01.27.01.32 0 .47v.18c0 .17-.14.31-.32.31-.02 0-.04 0-.06-.01zM99.11 206.44c-.01 0-.03-.01-.04-.01a.316.316 0 0 1-.19-.4c.46-1.25.88-2.38 1.44-3.47.08-.15.27-.22.42-.14.15.08.22.27.14.42-.54 1.07-.96 2.17-1.41 3.41-.06.14-.21.22-.36.19zM98.3 208.74c-.01 0-.02-.01-.04-.01a.312.312 0 0 1-.19-.4l.03-.09c.06-.16.24-.25.4-.19.16.06.25.23.19.4l-.03.09c-.05.15-.21.23-.36.2zM158.89 207.77h-.06c.01-.07 1.96-3.64 2.04-3.65.05.05.15 1.96.32 3.23-.03.11-1.92.39-2.3.42zm-5.13 6.94c.54-.04 1.14-.34 1.6-.96.58-.78 1.55-2.69 1.66-2.73 2.3-.65 4.01-.63 4.57-.78.23-.02.39 2.11 1.32 2.71.32.21.69.29 1.06.26.89-.07 1.75-.76 1.89-1.52a1.1 1.1 0 0 0-.33-1.01c-.29-.28-.57-1.27-.86-2.91-.73-4.33-.49-8.59-1.07-9.52-.28-.44-.78-.65-1.34-.61-.62.05-1.32.43-1.84 1.16-.16.22-.83 1.46-1.57 2.86-3.94 7.48-6.25 10.98-6.41 11.81-.12.84.57 1.3 1.32 1.24zM156.14 204.69l-.09-.03a.301.301 0 0 1-.12-.42c.19-.34.37-.68.56-1.02.53-.97 1.09-1.97 1.6-2.97.08-.15.27-.21.42-.14.15.08.21.27.14.42-.52 1.01-1.07 2.01-1.61 2.99-.19.34-.37.68-.56 1.01-.07.13-.21.19-.34.16zM154.66 207.2c-.03-.01-.07-.02-.1-.04a.312.312 0 0 1-.11-.43c.1-.16.19-.32.28-.48.05-.08.09-.16.14-.24.09-.15.28-.2.43-.11.15.09.2.28.11.43-.05.08-.09.16-.13.23-.1.17-.19.33-.29.5-.06.11-.2.17-.33.14zM186.49 211.48c.81-.06 1.68-.68 1.85-1.51.04-.21.03-.43-.03-.65-.28-.94-.26-4.81-.1-7.29.28-3.85-.29-5.93-1.98-5.81-.37.03-.78.16-1.19.41-1.32.79-3.63 6.03-3.83 6.04-.15-.21-.37-3.26-1.02-4.86-.45-1.13-1.03-1.6-1.88-1.54-.76.07-1.31.33-1.81 1.01-.79 1.11-4.11 11.41-4.4 12.88-.22 1.14.45 1.62 1.24 1.57a2.22 2.22 0 0 0 1.61-.91c.24-.32 2.57-8.32 2.73-8.33.13.01.32 3.93 1.97 4.57.21.09.53.12.84.1.31-.02.63-.09.86-.2 1.98-.92 3.21-4.75 3.57-5.04 0 0-.33 7.25.14 8.63.27.7.83.97 1.43.93zM194.12 207.87c-.52.03-1.85-1.58-1.33-4.18.45-2.25 2.03-5.06 2.59-5.61.07-.06.13-.08.19-.08.25-.02.51.32.65.67.61 1.65.62 3.3.33 4.75-.5 2.53-1.91 4.42-2.43 4.45zm-.58 2.91c2.46-.16 5.22-2.87 6.24-7.59.92-4.61-.94-8.72-3.63-8.54-1.09.07-2.31.83-3.55 2.55-1.64 2.29-2.58 4.47-2.96 6.4-.92 4.58 1.22 7.35 3.9 7.18zM203.92 210.35c.48-.03 1.03-.25 1.44-.6.56-.48.86-1.06 1.55-3.02 2.94-8.39 4.72-11.46 4.98-12.74.03-.17.04-.31.03-.43-.1-.64-.65-.93-1.29-.89-.66.04-1.39.43-1.77 1.1-.81 1.45-4.01 9.76-4.05 9.76-.1.01-.12-7.87-.11-7.89.04-.75-.59-1.24-1.37-1.19-1.01.07-1.76.85-1.92 1.62-.09.43-.06.87-.06 1.32.09 5.06-.12 7.99.64 10.88.42 1.6.94 2.15 1.93 2.08zM214.12 196.19c.99-.06 1.94-.7 2.1-1.5.12-.98-.52-1.42-1.43-1.36-.91.06-1.81.61-2.05 1.6-.23 1.14 1.04 1.26 1.04 1.26h.34zm-2.51 13.06c.76-.05 1.66-.62 1.87-1.47.02-.12.04-.28.05-.45.02-.75.15-1.7.36-2.7.4-1.99 1.04-4.2 1.3-5.47.1-.5.14-.86.09-1.01-.19-.5-.68-.71-1.24-.67-.58.04-1.2.33-1.61.89-.42.57-1.13 3.3-1.62 5.72-.34 1.66-.57 3.18-.55 3.77.02 1.04.65 1.43 1.35 1.39zM219.45 209.31c1.9-.12 4.98-1.53 5.29-3.05.2-.99-.41-1.27-1.31-1.27-1.2.08-1.87 1.3-3.19 1.38-.93.06-1.17-.44-1.25-1.37-.12-1.39.1-2.17.16-2.76.39-.13 2.9-.25 3.28-1.91.16-.78-.34-1.34-1.33-1.28-.41.03-1 .22-1.14.23h-.02l.01-.03c.02-.09.19-.56.94-3.69.02 0 .98-.03 2.09-.1.97-.06 2.02-.14 2.59-.3.95-.23 1.5-.88 1.63-1.5.11-.55-.14-1.08-.8-1.25-.15-.02-.24-.04-.49-.02-2.78.23-1.44.14-4.22.32-2.46.16-3.57.35-3.91 2.02-.09.45-.11 1.01-.23 1.62-.33 1.64-1.11 3.59-1.55 5.76-.63 3.11-.59 6.56 2.71 7.17.21.03.45.05.74.03zM227.41 209.05c1.01-.06 2.03-.96 2.21-1.85.15-.93-.61-1.69-1.68-1.62-.99.06-1.9.85-2.07 1.73-.19.94.48 1.81 1.54 1.74zm.96-4.43c.93-.06 1.75-.69 1.93-1.59.04-.19.04-.38.01-.51-.06-.27.06-1.06.28-2.12.39-1.92 1.08-4.66 1.42-6.3.14-.71.21-1.21.18-1.36-.14-.6-.68-.86-1.29-.82-.64.04-1.35.41-1.75 1.07-.2.32-.32.82-1.34 5.34-.23 1.02-.45 1.92-.61 2.72-.47 2.32-.28 3.66 1.17 3.57zM231.88 200.22a.309.309 0 0 1-.24-.36c.19-1.07.4-2.15.6-3.19.27-1.38.55-2.8.77-4.21.03-.17.19-.29.36-.26.17.03.29.19.26.36-.23 1.42-.51 2.85-.78 4.23-.2 1.04-.41 2.12-.6 3.18-.03.17-.19.28-.36.25h-.01zM231.57 202.41a.309.309 0 0 1-.24-.37c.02-.07.03-.14.04-.22v-.02c.03-.17.2-.28.37-.25h.01c.17.04.27.2.24.37v.02c-.01.08-.03.15-.05.23-.04.16-.2.27-.37.24zM208.91 209a.314.314 0 0 1-.25-.32c.06-1.7.41-3.24.78-4.88l.04-.18c.04-.17.2-.27.37-.24.17.04.27.21.24.37l-.04.18c-.37 1.61-.71 3.13-.77 4.76-.01.17-.15.31-.32.3-.01.02-.03.02-.05.01zM210.17 202.8c-.01 0-.02-.01-.03-.01a.315.315 0 0 1-.2-.39c.03-.11.07-.21.11-.32.06-.16.24-.25.4-.19.16.06.25.24.19.4-.04.1-.07.2-.1.3-.06.15-.22.24-.37.21zM191.28 197.74c-.03-.01-.07-.02-.1-.04a.309.309 0 0 1-.1-.43c.77-1.24 1.68-2.2 2.71-2.87.15-.09.34-.05.43.09.09.15.05.34-.09.43-.95.61-1.8 1.51-2.51 2.67-.08.13-.21.18-.34.15zM190.47 199.25c-.03-.01-.05-.02-.08-.03a.313.313 0 0 1-.13-.42c.04-.07.08-.14.11-.22.08-.15.27-.21.42-.13.15.08.21.27.13.42-.04.07-.07.14-.11.21-.06.14-.2.2-.34.17zM171.32 209.48c-.01 0-.03-.01-.04-.01a.316.316 0 0 1-.19-.4c.18-.49.32-1.02.45-1.52.12-.43.24-.87.38-1.3.2-.6.42-1.21.63-1.79.2-.57.42-1.15.61-1.73.05-.16.23-.25.4-.2.16.05.25.23.2.4-.19.59-.41 1.18-.61 1.75-.21.58-.43 1.18-.62 1.77-.14.42-.25.85-.37 1.27-.14.52-.28 1.05-.47 1.57-.06.14-.22.23-.37.19zM173.74 201.81c-.01 0-.02 0-.02-.01a.308.308 0 0 1-.21-.39l.01-.02c.03-.1.06-.19.08-.29a.3.3 0 0 1 .38-.22.3.3 0 0 1 .22.38l-.09.31-.01.02c-.04.16-.2.25-.36.22z"/>
</svg>
