<?xml version="1.0" standalone="no"?>
<!DOCTYPE svg PUBLIC "-//W3C//DTD SVG 20010904//EN"
 "http://www.w3.org/TR/2001/REC-SVG-20010904/DTD/svg10.dtd">
<svg version="1.0" xmlns="http://www.w3.org/2000/svg"
 width="1271.000000pt" height="1280.000000pt" viewBox="0 0 1271.000000 1280.000000"
 preserveAspectRatio="xMidYMid meet">
<g transform="translate(0.000000,1280.000000) scale(0.100000,-0.100000)"
fill="#FFF" stroke="none">
<path d="M6600 10799 c-928 -62 -1801 -299 -2640 -719 -782 -391 -1269 -810
-1447 -1245 -102 -251 -110 -518 -22 -745 32 -85 118 -230 152 -257 12 -10 35
-35 51 -57 l29 -38 20 33 c323 537 758 983 1320 1353 578 380 1245 659 1893
791 358 73 620 99 999 99 314 0 432 -11 655 -60 475 -106 842 -342 966 -620
115 -259 67 -748 -108 -1098 -191 -383 -525 -686 -1023 -931 -215 -106 -473
-208 -525 -209 -19 0 -82 10 -140 22 -208 46 -399 39 -575 -19 -133 -44 -215
-97 -325 -208 -109 -111 -171 -209 -237 -373 -46 -114 -108 -340 -100 -361 2
-6 27 -20 55 -30 49 -17 51 -19 54 -59 3 -40 5 -43 43 -54 91 -28 351 -11 518
32 51 13 62 13 80 1 14 -9 50 -80 96 -188 174 -405 431 -935 622 -1279 571
-1028 1140 -1648 1664 -1813 428 -134 888 42 1365 522 152 154 247 280 320
426 71 143 94 234 94 372 0 109 0 112 -27 137 -15 14 -27 29 -27 33 0 27 -22
139 -29 145 -4 5 -33 -24 -65 -62 -87 -104 -311 -317 -402 -382 -103 -74 -228
-140 -329 -174 -105 -35 -267 -44 -369 -20 -404 95 -850 584 -1348 1476 -207
369 -589 1161 -592 1224 -1 27 5 31 114 81 1134 516 1762 948 2076 1430 147
226 240 481 280 763 24 176 15 484 -20 648 -46 216 -126 413 -241 589 -316
488 -950 758 -1930 825 -175 11 -763 11 -945 -1z"/>
<path d="M5133 9235 c-62 -13 -165 -39 -230 -59 -147 -43 -494 -163 -504 -173
-5 -5 5 -29 21 -53 101 -153 112 -300 49 -670 -11 -63 -125 -646 -254 -1295
-539 -2718 -806 -4060 -840 -4220 -104 -491 -106 -548 -16 -650 25 -29 61 -71
78 -93 52 -64 103 -76 287 -69 232 9 459 68 741 191 137 60 129 45 100 186
-23 114 -15 280 24 514 17 99 278 1420 581 2935 302 1516 556 2796 565 2845
29 168 13 276 -64 438 -51 105 -105 160 -182 182 -77 23 -221 20 -356 -9z"/>
</g>
</svg>
